<svg xmlns="http://www.w3.org/2000/svg" viewBox="0 0 1440 320">
    <path fill="#FFAFA6" fill-opacity="1" d="M0,32L17.1,37.3C34.3,43,69,53,103,58.7C137.1,64,171,64,206,96C240,128,274,192,309,229.3C342.9,267,377,277,411,288C445.7,299,480,309,514,282.7C548.6,256,583,192,617,181.3C651.4,171,686,213,720,240C754.3,267,789,277,823,245.3C857.1,213,891,139,926,101.3C960,64,994,64,1029,101.3C1062.9,139,1097,213,1131,229.3C1165.7,245,1200,203,1234,192C1268.6,181,1303,203,1337,181.3C1371.4,160,1406,96,1423,64L1440,32L1440,0L1422.9,0C1405.7,0,1371,0,1337,0C1302.9,0,1269,0,1234,0C1200,0,1166,0,1131,0C1097.1,0,1063,0,1029,0C994.3,0,960,0,926,0C891.4,0,857,0,823,0C788.6,0,754,0,720,0C685.7,0,651,0,617,0C582.9,0,549,0,514,0C480,0,446,0,411,0C377.1,0,343,0,309,0C274.3,0,240,0,206,0C171.4,0,137,0,103,0C68.6,0,34,0,17,0L0,0Z"></path>
</svg>